<svg width="512" height="512" viewBox="0 0 512 512" fill="none" xmlns="http://www.w3.org/2000/svg">
<rect width="512" height="512" rx="80" fill="#18A2FE"/>
<path d="M57 359.652V167H101.035V332.13H181.765V359.652H57Z" fill="white"/>
<path d="M198.278 359.652V260.574H240.478V359.652H198.278Z" fill="white"/>
<path d="M255.157 359.652V211.035H297.357V359.652H255.157Z" fill="white"/>
<path d="M405.7 167C419.18 167 432.039 167.202 441.616 171.458C451.371 175.538 458.909 181.391 464.23 189.017C469.551 196.644 472.211 205.778 472.211 216.42C472.211 225.288 470.172 233.092 466.092 239.832C462.013 246.571 456.869 251.804 450.662 255.528C449.331 256.35 447.995 257.082 446.656 257.722C450.107 258.857 453.305 260.431 456.249 262.445C462.988 266.879 468.132 272.91 471.679 280.536C475.226 287.985 477 296.322 477 305.544C477 317.073 473.985 327.094 467.955 335.607C461.924 344.121 453.677 350.683 443.212 355.295C433.27 359.507 418.467 359.649 405.758 359.652C405.312 359.652 404.869 359.652 404.429 359.652L403.774 359.652H315.704V167H405.7Z" fill="white"/>
<path d="M409.278 212.87H354.235V240.391H409.278C429.828 230.117 417.841 217.762 409.278 212.87Z" fill="#18A2FE"/>
<path d="M409.278 313.783H354.235V286.261H409.278C428.36 298.004 417.229 309.501 409.278 313.783Z" fill="#18A2FE"/>
</svg>
